:SAMPLES-PER-SECOND 24
:FULLY-SPECIFIED
:DEGREES
307
root  8.84103 38.4147 18.9454 -2.245 44.6786 -7.53534
RightUpLeg  -16.8754 7.19268 -9.45523
RightLeg  22.9623 -5.26257 -2.65822
RightFoot  -3.49259 -0.708036 9.94942
RightToes  -2.08645e-008 3.77894e-005 6.81332e-007
Spine  -1.62603 -4.46217 -5.50932
Spine1  9.33421 -7.22328 10.585
HEad  -35.0608 -11.8099 9.8066
LeftShoulder1  8.48919 -14.1828 -41.6869
LeftArm  -3.61817 17.7258 -33.7885
LeftForeArm  166.584 -73.5763 -146.921
LeftHand  -0.416253 -2.1231 6.62986
RightShoulder  4.07379 6.64236 34.261
RightArm  4.74798 -24.1431 31.7105
RightForeArm  109.448 80.3316 98.1747
RightHand  -0.382542 7.50662 -3.80028
LeftUpLeg  -0.758539 -13.6981 9.20735
LeftLeg  26.3107 10.0679 5.71003
LeftFoot  -21.3495 -1.11851 -14.1697
LeftToes  1.24767e-006 1.47042e-008 1.32732e-009
308
root  9.11072 39.0673 18.2577 0.475952 42.1167 -6.83905
RightUpLeg  -17.3754 6.40257 -10.5331
RightLeg  15.9073 -3.4699 -1.91572
RightFoot  3.22392 -1.34461 10.6673
RightToes  -2.08645e-008 3.77894e-005 6.81332e-007
Spine  -3.05636 -4.44878 -5.6909
Spine1  7.87031 -7.09427 11.2181
HEad  -33.1602 -10.744 10.8272
LeftShoulder1  8.3174 -14.0332 -41.1522
LeftArm  -3.84527 22.6709 -39.0395
LeftForeArm  165.757 -72.3537 -149.119
LeftHand  -0.419149 -1.84189 6.91571
RightShoulder  4.17745 6.73665 34.8958
RightArm  4.76199 -29.8482 31.5503
RightForeArm  122.875 79.6795 111.981
RightHand  -0.298981 8.05203 -2.95115
LeftUpLeg  -1.3891 -9.67578 8.56717
LeftLeg  22.0213 9.38969 4.49239
LeftFoot  -17.7808 -0.650371 -13.3612
LeftToes  1.24767e-006 1.47042e-008 1.32732e-009
309
root  9.30486 39.507 17.6768 2.99939 38.7915 -5.81561
RightUpLeg  -17.9025 -0.23727 -9.57558
RightLeg  9.93395 3.20548 -1.94662
RightFoot  8.7992 -1.92329 11.1419
RightToes  -2.08645e-008 3.77894e-005 6.81332e-007
Spine  -4.81731 -4.14746 -5.57925
Spine1  7.2181 -6.44018 10.5081
HEad  -30.9264 -9.54442 11.5559
LeftShoulder1  7.95819 -13.7484 -39.9286
LeftArm  -2.27973 25.9405 -39.1842
LeftForeArm  168.644 -70.7184 -152.165
LeftHand  -0.270714 -2.79549 4.08687
RightShoulder  4.27015 6.85165 35.331
RightArm  5.47586 -34.1461 31.1399
RightForeArm  133.356 78.7768 121.96
RightHand  0.0453396 8.58805 -0.0118333
LeftUpLeg  -0.764576 -2.86687 7.72383
LeftLeg  16.5721 6.44727 2.89823
LeftFoot  -15.2762 -0.321159 -11.992
LeftToes  1.24767e-006 1.47042e-008 1.32732e-009
310
root  9.35965 39.5402 17.0469 3.89453 36.1483 -4.98425
RightUpLeg  -18.2634 -2.00907 -9.79547
RightLeg  9.13521 3.03038 -1.74005
RightFoot  9.71395 -2.02978 11.2598
RightToes  -2.08645e-008 3.77894e-005 6.81332e-007
Spine  -4.54176 -4.19047 -5.50018
Spine1  6.95087 -6.28728 9.64585
HEad  -30.5804 -7.91144 11.9433
LeftShoulder1  7.63517 -13.4831 -38.8045
LeftArm  0.448852 26.6889 -34.8521
LeftForeArm  171.997 -68.9043 -155.062
LeftHand  -0.131313 -3.36023 1.98167
RightShoulder  4.272 6.89245 35.1892
RightArm  6.68039 -35.1596 31.2022
RightForeArm  137.149 78.4986 124.662
RightHand  0.0121347 8.8916 -0.284407
LeftUpLeg  0.0615285 0.0158049 6.13628
LeftLeg  13.8623 5.7642 2.94593
LeftFoot  -15.3098 -0.309747 -11.5312
LeftToes  1.24767e-006 1.47042e-008 1.32732e-009
311
root  9.27516 39.255 16.3466 3.79797 33.9847 -3.8642
RightUpLeg  -18.1241 -0.933187 -10.8017
RightLeg  10.749 -1.12129 -1.91317
RightFoot  7.36764 -1.64576 10.2739
RightToes  -2.08645e-008 3.77894e-005 6.81332e-007
Spine  -2.21607 -4.22253 -6.96374
Spine1  6.52668 -6.48417 10.0869
HEad  -31.5531 -6.33493 11.5416
LeftShoulder1  7.41252 -13.2637 -38.0967
LeftArm  4.01461 24.6935 -28.8592
LeftForeArm  168.912 -69.1298 -154.398
LeftHand  -0.20293 -2.85099 3.08481
RightShoulder  4.16629 6.81465 34.4837
RightArm  8.05288 -33.1535 31.4338
RightForeArm  133.136 79.062 120.179
RightHand  0.0920258 9.1047 0.339064
LeftUpLeg  0.260425 -1.30022 3.76276
LeftLeg  14.5716 9.14865 4.19462
LeftFoot  -17.2701 -0.452412 -10.7041
LeftToes  1.24767e-006 1.47042e-008 1.32732e-009
312
root  9.08668 38.9091 15.7184 3.89795 31.7822 -2.03632
RightUpLeg  -18.5107 0.242582 -11.9032
RightLeg  11.5569 -4.42865 -2.59521
RightFoot  5.63154 -1.14501 7.93182
RightToes  -2.08645e-008 3.77894e-005 6.81332e-007
Spine  -0.439554 -3.7489 -10.4374
Spine1  7.39468 -6.5795 12.0024
HEad  -33.2042 -5.15304 11.2618
LeftShoulder1  7.46123 -13.2966 -38.2911
LeftArm  7.17014 20.8111 -22.4744
LeftForeArm  162.476 -71.6734 -149.781
LeftHand  -0.351902 -2.69551 5.27536
RightShoulder  4.08288 6.71829 34.0531
RightArm  8.2892 -29.7776 31.5086
RightForeArm  123.281 79.9979 109.332
RightHand  -0.0449297 8.99507 -0.754522
LeftUpLeg  -0.113984 -2.78597 1.05524
LeftLeg  16.5435 12.9369 5.43652
LeftFoot  -19.1229 -0.539517 -9.58679
LeftToes  1.24767e-006 1.47042e-008 1.32732e-009
313
root  8.88613 38.6801 15.275 4.05005 29.5479 -0.556396
RightUpLeg  -20.2058 2.7988 -13.2974
RightLeg  12.8736 -6.51207 -2.98575
RightFoot  5.68511 -0.969463 6.7348
RightToes  -2.08645e-008 3.77894e-005 6.81332e-007
Spine  0.0763471 -3.1571 -12.8918
Spine1  9.09105 -6.34221 12.7782
HEad  -34.9424 -4.30475 11.9606
LeftShoulder1  7.66759 -13.5062 -38.9289
LeftArm  8.18347 17.7853 -17.1435
LeftForeArm  161.295 -74.0187 -145.123
LeftHand  -0.356347 -2.8842 5.23047
RightShoulder  4.08894 6.69628 34.1973
RightArm  6.95632 -27.61 31.7695
RightForeArm  109.536 80.6201 93.5406
RightHand  -0.106919 8.93813 -1.26326
LeftUpLeg  -0.985633 -2.57849 -0.647088
LeftLeg  18.9151 14.6648 6.1068
LeftFoot  -20.2431 -0.617703 -9.46842
LeftToes  1.24767e-006 1.47042e-008 1.32732e-009
314
root  8.79089 38.5956 15.0437 3.63928 27.2991 -0.704773
RightUpLeg  -22.4709 5.42621 -14.0827
RightLeg  15.416 -6.62717 -2.42873
RightFoot  6.41702 -1.30619 8.62052
RightToes  -2.08645e-008 3.77894e-005 6.81332e-007
Spine  0.903226 -2.9462 -11.9491
Spine1  8.95333 -5.83848 11.3839
HEad  -35.2906 -3.62985 12.4817
LeftShoulder1  7.65376 -13.5186 -38.8199
LeftArm  6.8841 18.58 -15.4231
LeftForeArm  165.653 -74.1663 -145.53
LeftHand  -0.23129 -2.92268 3.45593
RightShoulder  4.09636 6.70565 34.2331
RightArm  6.14834 -28.0566 31.8356
RightForeArm  100.015 80.5724 84.7538
RightHand  -0.640697 8.43068 -5.73954
LeftUpLeg  -1.62983 -0.857107 -0.590777
LeftLeg  20.7526 15.0767 6.60637
LeftFoot  -20.8117 -0.679663 -9.6901
LeftToes  1.24767e-006 1.47042e-008 1.32732e-009
315
root  8.76319 38.6744 15.018 3.17761 25.3346 -1.96228
RightUpLeg  -24.2962 4.65572 -12.8034
RightLeg  17.3469 -3.70027 -1.50003
RightFoot  6.58357 -1.61595 10.507
RightToes  -2.08645e-008 3.77894e-005 6.81332e-007
Spine  1.8118 -3.08888 -10.1626
Spine1  7.42313 -5.77761 10.8998
HEad  -34.2678 -2.89606 12.0984
LeftShoulder1  7.44715 -13.3181 -38.1568
LeftArm  4.8987 22.2821 -17.5035
LeftForeArm  166.834 -72.6419 -148.761
LeftHand  -0.20969 -2.75282 3.21141
RightShoulder  4.0622 6.68017 33.9999
RightArm  7.21295 -30.0847 30.5753
RightForeArm  104.561 80.4501 92.5664
RightHand  -0.139936 8.55611 -1.5475
LeftUpLeg  -1.45725 0.276292 0.48157
LeftLeg  20.5421 15.9705 6.92505
LeftFoot  -20.5232 -0.663221 -9.76969
LeftToes  1.24767e-006 1.47042e-008 1.32732e-009
316
root  8.67636 38.8595 15.1718 3.37158 24.1316 -3.03589
RightUpLeg  -25.967 2.6382 -11.1559
RightLeg  18.854 -2.63032 -1.21106
RightFoot  5.32949 -1.35843 9.48551
RightToes  -2.08645e-008 3.77894e-005 6.81332e-007
Spine  1.54344 -3.43975 -10.2945
Spine1  6.75519 -6.49271 12.8934
HEad  -33.1619 -2.17124 12.0951
LeftShoulder1  7.32502 -13.1619 -37.852
LeftArm  3.11006 25.5711 -20.9414
LeftForeArm  164.124 -71.1835 -150.845
LeftHand  -0.303129 -2.25135 4.80672
RightShoulder  4.0354 6.63356 33.92
RightArm  8.21105 -31.6346 28.646
RightForeArm  113.693 80.1852 102.681
RightHand  -0.0461754 8.50638 -0.771209
LeftUpLeg  -0.921353 0.947434 1.65514
LeftLeg  18.5371 16.4864 6.59808
LeftFoot  -19.6419 -0.629777 -10.2775
LeftToes  1.24767e-006 1.47042e-008 1.32732e-009
317
root  8.50984 39.0061 15.4705 4.01843 23.652 -3.43732
RightUpLeg  -27.6592 0.508421 -10.2865
RightLeg  20.408 -5.2437 -2.37327
RightFoot  3.58451 -0.818779 6.42432
RightToes  -2.08645e-008 3.77894e-005 6.81332e-007
Spine  0.746897 -3.98281 -11.5669
Spine1  6.58155 -7.47075 15.2311
HEad  -32.2052 -1.96839 13.2732
LeftShoulder1  7.35164 -13.1658 -37.9955
LeftArm  1.93158 26.705 -23.6271
LeftForeArm  162.663 -70.6376 -151.484
LeftHand  -0.348957 -2.0156 5.66076
RightShoulder  4.04666 6.62267 34.0731
RightArm  7.60398 -32.9163 27.578
RightForeArm  117.461 80.1433 105.146
RightHand  -0.0518525 8.70083 -0.81057
LeftUpLeg  -0.351004 1.9315 2.60409
LeftLeg  16.1579 16.2187 5.80727
LeftFoot  -18.774 -0.578265 -10.6018
LeftToes  1.24767e-006 1.47042e-008 1.32732e-009
318
root  8.30797 39.0347 15.8708 4.63196 23.2289 -3.20947
RightUpLeg  -28.945 -1.12598 -10.4655
RightLeg  20.4144 -8.97411 -3.88022
RightFoot  2.71924 -0.354075 3.02626
RightToes  -2.08645e-008 3.77894e-005 6.81332e-007
Spine  0.398018 -4.4325 -12.3945
Spine1  6.20571 -8.00398 16.1393
HEad  -31.6225 -2.50418 14.9392
LeftShoulder1  7.41886 -13.2297 -38.2199
LeftArm  2.2696 25.2843 -24.8841
LeftForeArm  161.389 -71.3586 -150.168
LeftHand  -0.372907 -2.3024 5.83424
RightShoulder  4.11923 6.68746 34.5262
RightArm  5.85661 -34.259 27.5379
RightForeArm  115.809 80.1617 104.076
RightHand  -0.0218191 8.70347 -0.562058
LeftUpLeg  0.534843 2.63706 3.03309
LeftLeg  14.1936 16.1244 5.12781
LeftFoot  -18.1914 -0.527326 -10.6065
LeftToes  1.24767e-006 1.47042e-008 1.32732e-009
